# xmcd
#
# Track frame offsets:
#	150
#	18005
#	37631
#	54094
#	69529
#	92202
#	106600
#	126226
#	144496
#	163623
#
# Disc length: 2407 seconds
#
# Revision: 0
# Processed by: cddbd v1.5.2PL0 Copyright (c) Steve Scherf et al.
# Submitted via: EasyCDDAExtractor 16.0.8.1
#
DISCID=7009650a
DTITLE=Hellbillies - Tretten
DYEAR=2012
DGENRE=
TTITLE0=Reise i lag med deg
TTITLE1=Pille med bråk
TTITLE2=Kom te meg
TTITLE3=Maset
TTITLE4=Poker
TTITLE5=Rop farvel
TTITLE6=Drøyme om deg
TTITLE7=Leita natt og dag
TTITLE8=Det ingen andre ser
TTITLE9=Tiger i bur
EXTD=
EXTT0=
EXTT1=
EXTT2=
EXTT3=
EXTT4=
EXTT5=
EXTT6=
EXTT7=
EXTT8=
EXTT9=
PLAYORDER=
